<svg width="50" height="50" viewBox="0 0 50 50" fill="none" xmlns="http://www.w3.org/2000/svg">
<g clip-path="url(#clip0_409_376)">
<path d="M25 50C38.8071 50 50 38.8071 50 25C50 11.1929 38.8071 0 25 0C11.1929 0 0 11.1929 0 25C0 38.8071 11.1929 50 25 50Z" fill="url(#paint0_linear_409_376)"/>
<path d="M30.3125 11.1111H19.7014C14.9681 11.1111 11.1237 14.9555 11.1237 19.6889V30.3C11.1237 35.0333 14.9681 38.8778 19.7014 38.8778H30.3125C35.0459 38.8778 38.8903 35.0333 38.8903 30.3V19.6889C38.8903 14.9555 35.0459 11.1111 30.3125 11.1111ZM35.7903 30.3111C35.7903 33.3333 33.3348 35.8 30.3014 35.8H19.6903C16.6681 35.8 14.2014 33.3444 14.2014 30.3111V19.7C14.2014 16.6778 16.657 14.2111 19.6903 14.2111H30.3014C33.3237 14.2111 35.7903 16.6666 35.7903 19.7V30.3111Z" fill="white"/>
<path d="M25.0014 17.8992C21.0903 17.8992 17.9014 21.0881 17.9014 24.9992C17.9014 28.9103 21.0903 32.0992 25.0014 32.0992C28.9125 32.0992 32.1014 28.9103 32.1014 24.9992C32.1014 21.0881 28.9125 17.8992 25.0014 17.8992V17.8992ZM25.0014 29.3103C22.6237 29.3103 20.6903 27.3769 20.6903 24.9992C20.6903 22.6214 22.6237 20.6881 25.0014 20.6881C27.3792 20.6881 29.3125 22.6214 29.3125 24.9992C29.3125 27.3769 27.3792 29.3103 25.0014 29.3103Z" fill="white"/>
<path d="M32.6445 18.6785C33.2986 18.5725 33.7429 17.9562 33.6368 17.3021C33.5308 16.648 32.9146 16.2037 32.2605 16.3097C31.6063 16.4157 31.162 17.032 31.268 17.6861C31.3741 18.3402 31.9903 18.7845 32.6445 18.6785Z" fill="white"/>
</g>
<defs>
<linearGradient id="paint0_linear_409_376" x1="5.96433" y1="44.0357" x2="41.4921" y2="8.50789" gradientUnits="userSpaceOnUse">
<stop stop-color="#FEE411"/>
<stop offset="0.0518459" stop-color="#FEDB16"/>
<stop offset="0.1381" stop-color="#FEC125"/>
<stop offset="0.2481" stop-color="#FE983D"/>
<stop offset="0.3762" stop-color="#FE5F5E"/>
<stop offset="0.5" stop-color="#FE2181"/>
<stop offset="1" stop-color="#9000DC"/>
</linearGradient>
<clipPath id="clip0_409_376">
<rect width="50" height="50" fill="white"/>
</clipPath>
</defs>
</svg>
